<?xml version="1.0" encoding="UTF-8" standalone="no"?>
<!--part of the matt icon theme by sixsixfive released under CC0 (https://creativecommons.org/publicdomain/zero/1.0/) on openclipart-->
<svg xmlns="http://www.w3.org/2000/svg" xmlns:xlink="http://www.w3.org/1999/xlink" viewBox="0 0 128 128">
 <defs id="0">
  <linearGradient id="E">
   <stop id="X" stop-color="#383838"/>
   <stop id="Y" offset="1" stop-color="#2c2c2c"/>
  </linearGradient>
  <linearGradient id="F">
   <stop id="Z" stop-color="#fdfdfd"/>
   <stop id="a" offset="1" stop-color="#eee"/>
  </linearGradient>
  <linearGradient id="G">
   <stop id="b"/>
   <stop id="c" offset="1" stop-opacity="0"/>
  </linearGradient>
  <linearGradient id="H">
   <stop id="d" stop-color="#644a9b"/>
   <stop id="e" offset="1" stop-color="#564086"/>
  </linearGradient>
  <linearGradient id="I">
   <stop id="f" stop-color="#eee"/>
   <stop id="g" offset="1" stop-color="#eee" stop-opacity="0"/>
  </linearGradient>
  <linearGradient id="J">
   <stop id="h" stop-color="#644a9b"/>
   <stop id="i" offset="1" stop-color="#584188"/>
  </linearGradient>
  <linearGradient id="K">
   <stop id="j" stop-color="#2c72c7"/>
   <stop id="k" offset="1" stop-color="#2868b6"/>
  </linearGradient>
  <linearGradient id="L">
   <stop id="l" stop-color="#eee" stop-opacity="0.83"/>
   <stop id="m" offset="1" stop-color="#eee" stop-opacity="0.197"/>
  </linearGradient>
  <filter color-interpolation-filters="sRGB" id="M">
   <feGaussianBlur stdDeviation="1.20614" id="n"/>
  </filter>
  <radialGradient cx="23.555" cy="36.778" r="43.47" id="N" xlink:href="#K" gradientUnits="userSpaceOnUse" gradientTransform="matrix(1,0,0,0.48670358,0,31.952702)"/>
  <radialGradient cx="67.08" cy="44.686" r="21.594" id="O" xlink:href="#J" gradientUnits="userSpaceOnUse" gradientTransform="matrix(1,0,0,2.023268,0,-63.699562)"/>
  <radialGradient cx="56.625" cy="22.839" r="33.516" id="P" xlink:href="#I" gradientUnits="userSpaceOnUse"/>
  <radialGradient cx="54.995" cy="121.74" r="38.899" id="Q" xlink:href="#G" gradientUnits="userSpaceOnUse" gradientTransform="matrix(1,0,0,0.10344828,0,109.14657)"/>
  <radialGradient cx="56.625" cy="45.15" r="26.922" id="R" xlink:href="#H" gradientUnits="userSpaceOnUse" gradientTransform="matrix(1.2329855,0,0,1.2329855,-12.258855,-12.752811)"/>
  <radialGradient cx="45.661" cy="30.13" r="43.889" id="S" xlink:href="#L" gradientUnits="userSpaceOnUse" gradientTransform="matrix(0.83805672,1.6916332,-1.102045,0.54596719,29.310654,-48.769855)"/>
  <radialGradient cx="42.892" cy="41.64" r="33.828" id="T" xlink:href="#F" gradientUnits="userSpaceOnUse" gradientTransform="matrix(-0.00660451,2.4488856,-2.9157002,-0.00786374,173.59619,-69.085277)"/>
  <radialGradient cx="16.556" cy="47.07" r="17.906" id="U" xlink:href="#E" gradientUnits="userSpaceOnUse" gradientTransform="matrix(1.9548653,4.6226906,-1.2062943,0.97943709,40.974031,-73.958448)"/>
 </defs>
 <path d="m 93.893948,121.7404 a 38.898922,4.0240264 0 1 1 -77.797844,0 38.898922,4.0240264 0 1 1 77.797844,0 z" transform="matrix(1.0296453,0,0,1,2.0566502,-2.2355701)" id="1" opacity="0.396" fill="url(#Q)"/>
 <path d="m 71.430036,8.4005965 c -2.372521,0.041465 -4.760202,0.7655545 -6.858482,2.2347865 l -29.283406,20.498384 58.682404,0 L 81.717759,13.640785 C 79.26904,10.143651 75.384236,8.3314889 71.430036,8.4005965 z M 34.016632,96.828775 46.269425,114.32176 c 3.917951,5.59541 11.589322,6.96188 17.184736,3.04393 l 29.321936,-20.536915 -58.759465,0 z" id="2" fill="#462886"/>
 <path d="M 31.165353,34.023576 13.672371,46.27637 C 8.0769573,50.194321 6.7104876,57.82716 10.628438,63.422574 l 20.536915,29.321937 0,-58.720935 z m 65.695009,1.232986 0,58.720934 17.492978,-12.252793 c 5.59542,-3.917951 6.92335,-11.589322 3.00541,-17.184735 L 96.860362,35.256562 z" id="3" fill="#00316e"/>
 <path d="m 33.5625,41.09375 -11.59375,8.125 c -3.813525,2.670259 -4.730098,7.815275 -2.0625,11.625 l 13.65625,19.5 0,-39.25 z m 56.59375,3.0625 0,39.25 11.59375,-8.125 c 3.80641,-2.66528 4.69972,-7.845271 2.03125,-11.65625 l -13.625,-19.46875 z" transform="matrix(1.2329855,0,0,1.2329855,-12.258855,-12.752811)" id="4" fill="url(#N)"/>
 <path d="m 67.90625,18.5625 c -1.653319,0.0289 -3.313414,0.53471 -4.78125,1.5625 l -20.09375,14.0625 40.40625,0 -8.375,-11.96875 C 73.347773,19.769865 70.665446,18.514278 67.90625,18.5625 z M 40.25,90.28125 48.625,102.25 c 2.742409,3.91656 8.054356,4.86589 11.96875,2.125 l 20.125,-14.09375 -40.46875,0 z" transform="matrix(1.2329855,0,0,1.2329855,-12.258855,-12.752811)" id="5" fill="url(#O)"/>
 <path d="m 71.468567,10.635383 c -1.940048,0.03391 -3.861138,0.64104 -5.586966,1.849478 l -23.465255,16.414119 47.200226,0 L 79.86828,14.950832 C 77.850855,12.069648 74.709434,10.578743 71.468567,10.635383 z M 29.046159,38.107841 14.905357,48.010256 c -4.665697,3.266955 -5.806574,9.518512 -2.543033,14.179333 l 16.683835,23.812032 0,-47.89378 z m 69.933397,3.89161 0,47.893781 14.140804,-9.902415 c 4.65657,-3.260567 5.76916,-9.555434 2.5045,-14.217864 L 98.979556,41.999451 z m -60.608944,57.064111 9.748292,13.948148 c 3.225347,4.60626 9.422773,5.72717 14.02521,2.5045 L 85.6479,99.063562 l -47.277288,0 z" id="6" fill="none" stroke="url(#S)" stroke-width="1.233"/>
 <rect width="70.39" height="70.39" x="26.655" y="27.05" transform="matrix(1.2329855,0,0,1.2329855,-12.258855,-12.752811)" id="7" opacity="0.618" filter="url(#M)" rx="10"/>
 <rect width="86.8" height="86.8" x="20.606" y="20.594" id="8" fill="#ddd" rx="12.33"/>
 <path d="m 36.65625,28.40625 c -4.800717,0 -8.625,3.824283 -8.625,8.625 l 0,50.40625 c 0,4.800717 3.824283,8.625 8.625,8.625 l 50.40625,0 c 4.800717,0 8.625,-3.824283 8.625,-8.625 l 0,-50.40625 c 0,-4.800717 -3.824283,-8.625 -8.625,-8.625 l -50.40625,0 z" transform="matrix(1.2329855,0,0,1.2329855,-12.258855,-12.752811)" id="9" fill="url(#T)"/>
 <path d="m 36.65625,29.21875 c -4.358464,0 -7.8125,3.454036 -7.8125,7.8125 l 0,50.40625 c 0,4.358464 3.454036,7.8125 7.8125,7.8125 l 50.40625,0 c 4.358464,0 7.8125,-3.454036 7.8125,-7.8125 l 0,-50.40625 c 0,-4.358464 -3.454036,-7.8125 -7.8125,-7.8125 l -50.40625,0 z" transform="matrix(1.2329855,0,0,1.2329855,-12.258855,-12.752811)" id="A" fill="none" stroke="url(#P)"/>
 <path d="m 63.993592,30.786989 c -18.333382,0 -33.175016,14.880165 -33.175016,33.213547 0,18.333383 14.841634,33.175016 33.175016,33.175016 18.333382,0 33.213547,-14.841633 33.213547,-33.175016 0,-18.333382 -14.880165,-33.213547 -33.213547,-33.213547 z m 0.03853,9.054738 c 13.333369,0 24.120279,10.82544 24.120279,24.158809 0,13.33337 -10.78691,24.120279 -24.120279,24.120279 -13.33337,0 -24.15881,-10.786909 -24.15881,-24.120279 0,-13.333369 10.82544,-24.158809 24.15881,-24.158809 z" id="B" fill="url(#R)"/>
 <g transform="matrix(0.39738248,0,0,0.39738248,40.306494,-328.77655)" id="C" fill="#323232">
  <path d="M 38.163991,77.366587 28.019628,59.796036 17.875266,42.225486 l 20.288724,0 20.288724,-10e-7 -10.144362,17.570551 -10.144361,17.570551 z" transform="matrix(0,1.9715385,1.4228353,0,-21.079912,913.1204)" id="V"/>
  <path d="m 20.25,43.59375 8.96875,15.5 8.9375,15.53125 8.96875,-15.53125 8.9375,-15.5 -17.90625,0 -17.90625,0 z" transform="matrix(0,1.9715385,1.4228353,0,-21.079912,913.1204)" id="W" fill="url(#U)"/>
 </g>
 <path d="M 64,32 C 46.328536,32 32.03125,46.327147 32.03125,64 32.03125,81.672854 46.327147,95.96875 64,95.96875 81.672853,95.96875 96,81.671465 96,64 96,46.328536 81.671464,32 64,32 z m 0.03125,6.625 C 78.026364,38.625 89.375,50.006797 89.375,64 c 0,13.993204 -11.350547,25.34375 -25.34375,25.34375 -13.993204,0 -25.375,-11.348636 -25.375,-25.34375 0,-13.995114 11.379885,-25.375 25.375,-25.375 z" id="D" fill="#644a9b"/>
</svg>
